<?xml version="1.0" encoding="utf-8"?>
<svg version="1.0" xmlns="http://www.w3.org/2000/svg" width="1299.000000pt" height="649.000000pt" preserveAspectRatio="xMidYMid meet" viewBox="261.205 173.572 792.713 270.947">
  <g transform="translate(0.000000,649.000000) scale(0.100000,-0.100000)" fill="#000000" stroke="none">
    <path d="M3767 4403 c-16 -15 -6 -73 15 -93 12 -11 80 -43 152 -71 72 -28 185 -77 251 -109 152 -73 212 -131 244 -235 12 -37 21 -74 21 -82 0 -8 -25 8 -60 38 -95 84 -122 99 -458 248 -340 150 -380 161 -404 119 -10 -18 -14 -150 -16 -587 -3 -596 0 -651 41 -689 22 -21 146 -78 462 -212 228 -96 282 -127 386 -226 49 -47 97 -84 108 -84 12 0 32 17 51 43 65 91 154 150 440 295 277 141 284 144 312 190 22 35 23 47 26 268 4 259 1 274 -51 274 -18 0 -38 -5 -45 -12 -9 -9 -12 -73 -12 -227 0 -119 -3 -226 -6 -239 -5 -17 -63 -50 -263 -151 -141 -72 -285 -150 -321 -175 l-65 -46 -7 43 c-3 23 -7 285 -7 582 -1 496 1 545 17 600 20 66 56 127 94 163 13 12 60 41 104 65 75 40 79 44 82 79 4 50 -19 63 -82 44 -74 -22 -130 -61 -200 -138 -36 -39 -68 -69 -71 -66 -3 3 -23 28 -43 56 -66 88 -106 113 -376 230 -235 102 -301 124 -319 105z m21 -369 c70 -31 174 -76 232 -101 205 -89 323 -171 375 -260 53 -89 55 -112 55 -595 0 -247 -4 -448 -8 -448 -5 0 -17 9 -28 21 -37 41 -160 103 -442 221 -158 66 -299 127 -314 134 l-28 15 0 534 c0 470 2 535 15 535 8 0 72 -25 143 -56z" style="fill: rgb(90, 70, 187);"/>
    <path d="M5308 4379 c-27 -15 -26 -134 1 -149 27 -14 114 -13 129 2 7 7 12 39 12 73 0 34 -5 66 -12 73 -15 15 -106 15 -130 1z" style="fill: rgb(90, 70, 187);"/>
    <path d="M4942 4328 c-16 -16 -16 -120 0 -136 7 -7 37 -12 68 -12 31 0 61 5 68 12 7 7 12 37 12 68 0 31 -5 61 -12 68 -16 16 -120 16 -136 0z" style="fill: rgb(90, 70, 187);"/>
    <path d="M5937 4203 c-18 -29 -266 -726 -262 -734 9 -14 111 -11 123 4 6 7 23 46 38 87 14 41 32 78 38 82 16 11 248 9 265 -1 8 -5 28 -46 46 -92 l32 -84 58 -3 c35 -2 61 1 65 8 4 6 -52 174 -125 373 l-131 362 -71 3 c-39 2 -73 -1 -76 -5z m123 -308 c23 -66 45 -126 47 -132 4 -10 -19 -13 -97 -13 -100 0 -101 0 -94 23 34 113 88 257 94 250 4 -4 26 -62 50 -128z" style="fill: rgb(90, 70, 187);"/>
    <path d="M7225 4198 c-3 -7 -4 -175 -3 -373 l3 -360 58 -3 57 -3 0 158 c0 184 9 227 50 248 45 23 102 19 128 -8 21 -22 22 -33 22 -193 0 -199 3 -207 70 -202 l45 3 3 205 c3 235 -3 257 -73 298 -34 19 -52 22 -112 20 -59 -3 -76 -7 -97 -27 l-25 -24 -3 134 -3 134 -58 3 c-40 2 -59 -1 -62 -10z" style="fill: rgb(90, 70, 187);"/>
    <path d="M7766 4178 c-36 -51 -7 -108 53 -108 46 0 71 24 71 67 0 39 -28 63 -73 63 -26 0 -40 -6 -51 -22z" style="fill: rgb(90, 70, 187);"/>
    <path d="M5127 4093 c-4 -3 -7 -39 -7 -79 0 -82 2 -84 81 -84 79 0 89 10 89 85 0 53 -3 66 -19 75 -22 11 -134 14 -144 3z" style="fill: rgb(90, 70, 187);"/>
    <path d="M6585 3982 c-22 -11 -47 -27 -55 -37 -14 -17 -15 -16 -20 6 -5 21 -12 24 -63 27 l-57 3 2 -258 3 -258 55 0 55 0 6 145 c9 212 23 242 121 261 l59 12 -3 56 c-3 54 -4 56 -33 59 -16 1 -48 -6 -70 -16z" style="fill: rgb(90, 70, 187);"/>
    <path d="M6867 3982 c-66 -24 -113 -64 -142 -122 -73 -143 -21 -318 113 -386 46 -23 61 -26 121 -22 81 6 144 37 178 87 39 57 32 71 -43 95 -16 5 -33 -3 -65 -30 -40 -33 -47 -36 -93 -31 -63 6 -101 44 -111 111 -14 88 18 158 85 186 39 16 71 7 115 -31 30 -27 41 -31 72 -26 75 13 80 60 13 121 -61 55 -167 76 -243 48z" style="fill: rgb(90, 70, 187);"/>
    <path d="M9240 3989 c-14 -6 -35 -19 -46 -30 -21 -20 -21 -20 -27 1 -5 19 -12 21 -64 18 l-58 -3 -3 -235 c-1 -129 0 -245 3 -257 5 -20 12 -23 53 -23 26 0 53 5 60 12 8 8 12 63 12 181 l0 169 29 29 c20 19 40 29 59 29 81 0 92 -27 92 -229 0 -88 3 -166 6 -175 4 -11 19 -16 44 -16 72 0 70 -5 70 171 0 175 9 215 55 245 22 14 32 15 64 6 56 -17 61 -38 61 -230 0 -117 4 -172 12 -180 7 -7 34 -12 60 -12 67 0 71 13 65 222 -4 147 -7 173 -27 213 -52 108 -187 132 -278 50 l-38 -33 -32 33 c-45 48 -116 66 -172 44z" style="fill: rgb(90, 70, 187);"/>
    <path d="M7760 3731 c0 -281 -2 -274 77 -269 l48 3 3 258 2 257 -65 0 -65 0 0 -249z" style="fill: rgb(90, 70, 187);"/>
    <path d="M7943 3968 c2 -7 39 -110 82 -228 84 -234 91 -249 114 -267 21 -16 106 -16 119 0 13 16 182 473 182 493 0 11 -15 14 -62 14 l-63 0 -59 -165 c-32 -91 -62 -165 -65 -165 -4 0 -31 74 -61 165 l-54 165 -69 0 c-51 0 -68 -3 -64 -12z" style="fill: rgb(90, 70, 187);"/>
    <path d="M8502 3781 l3 -199 30 -44 c17 -23 46 -53 64 -65 57 -39 160 -27 200 21 19 23 31 20 31 -9 0 -24 3 -25 60 -25 l60 0 0 260 0 260 -59 0 -59 0 -4 -172 c-3 -95 -8 -181 -12 -190 -12 -27 -56 -51 -98 -52 -29 0 -44 6 -65 27 l-28 27 -5 178 -5 177 -58 3 -58 3 3 -200z" style="fill: rgb(90, 70, 187);"/>
    <path d="M4852 3908 c-17 -17 -16 -123 2 -137 9 -7 38 -11 73 -9 l58 3 3 78 3 77 -64 0 c-36 0 -68 -5 -75 -12z" style="fill: rgb(90, 70, 187);"/>
    <path d="M5191 3737 c-16 -20 -24 -72 -17 -111 11 -55 87 -74 130 -30 22 21 22 117 0 138 -19 20 -97 21 -113 3z" style="fill: rgb(90, 70, 187);"/>
    <path d="M5692 2933 l3 -368 223 -2 222 -2 0 60 0 59 -165 0 -165 0 0 310 0 310 -60 0 -60 0 2 -367z" style="fill: rgb(90, 70, 187);"/>
    <path d="M6212 3284 c-28 -20 -31 -83 -4 -107 25 -23 78 -21 102 3 61 61 -27 154 -98 104z" style="fill: rgb(90, 70, 187);"/>
    <path d="M6432 2933 l3 -368 55 0 c53 0 55 1 58 28 4 33 7 33 43 2 39 -32 89 -40 161 -27 74 14 121 49 152 115 79 170 8 362 -147 396 -55 13 -124 1 -174 -30 l-33 -21 0 136 0 136 -60 0 -60 0 2 -367z m314 30 c60 -39 80 -141 45 -220 -22 -47 -53 -71 -104 -80 -134 -21 -193 218 -72 297 37 24 97 26 131 3z" style="fill: rgb(90, 70, 187);"/>
    <path d="M7382 3277 c-61 -65 22 -153 96 -101 15 11 22 25 22 50 0 67 -73 99 -118 51z" style="fill: rgb(90, 70, 187);"/>
    <path d="M7216 3090 c-16 -5 -41 -21 -57 -36 l-27 -26 -4 28 c-3 25 -8 29 -40 32 -20 2 -46 -2 -58 -8 -20 -11 -20 -17 -18 -263 l3 -252 55 0 55 0 5 155 c4 130 8 160 24 187 21 35 77 63 125 63 32 0 41 14 41 65 0 58 -34 75 -104 55z" style="fill: rgb(90, 70, 187);"/>
    <path d="M7683 3084 c-73 -27 -123 -114 -108 -185 11 -47 67 -96 133 -115 31 -9 76 -26 100 -37 34 -17 42 -26 42 -49 0 -18 -7 -31 -21 -39 -31 -16 -97 -5 -125 22 -18 17 -40 24 -84 27 -59 4 -60 4 -60 -21 0 -36 42 -81 102 -111 64 -32 164 -36 217 -8 79 40 122 142 88 208 -26 50 -63 75 -153 105 -115 38 -153 73 -105 99 36 19 97 12 129 -15 22 -19 41 -25 75 -25 25 0 48 4 51 8 3 5 -4 26 -14 48 -41 82 -170 124 -267 88z" style="fill: rgb(90, 70, 187);"/>
    <path d="M7381 3080 c-8 -4 -11 -82 -9 -261 l3 -254 60 0 60 0 0 260 0 260 -52 1 c-28 1 -56 -2 -62 -6z" style="fill: rgb(90, 70, 187);"/>
    <path d="M6200 2815 l0 -255 60 0 60 0 0 255 0 255 -60 0 -60 0 0 -255z" style="fill: rgb(90, 70, 187);"/>
  </g>
</svg>